<svg width="151" height="50" viewBox="0 0 151 50" fill="none" xmlns="http://www.w3.org/2000/svg">
<path d="M52.0515 11.2975C53.9004 12.1187 55.3188 13.2961 56.304 14.8296C57.2906 16.3632 57.7839 18.183 57.7839 20.2919C57.7839 22.4009 57.2906 24.1872 56.304 25.7333C55.3174 27.2808 53.9004 28.4637 52.0515 29.2863C50.2027 30.1076 48.031 30.5182 45.538 30.5182H39.0454V38.8143H33.7029V10.0643H45.538C48.031 10.0643 50.2013 10.4749 52.0515 11.2961V11.2975ZM50.5926 24.521C51.7972 23.5349 52.4009 22.1257 52.4009 20.2905C52.4009 18.4553 51.7986 17.0461 50.5926 16.0601C49.3866 15.074 47.6202 14.581 45.292 14.581H39.0454V25.9986H45.292C47.6202 25.9986 49.3866 25.5056 50.5926 24.5196V24.521Z" fill="#283B31"/>
<path d="M81.9054 11.1732C83.8228 12.1872 85.3096 13.6858 86.3633 15.6704C87.417 17.6564 87.9453 20.0587 87.9453 22.8785V38.8129H82.6028V31.4204H67.6458V38.8129H62.3857V22.8785C62.3857 20.0587 62.9126 17.6564 63.9677 15.6704C65.0213 13.6858 66.5082 12.1872 68.4255 11.1732C70.3429 10.1606 72.59 9.65365 75.1655 9.65365C77.741 9.65365 79.9867 10.1606 81.904 11.1732H81.9054ZM82.6042 26.9442V22.3855C82.6042 19.7305 81.9474 17.7249 80.6324 16.3687C79.3174 15.014 77.4811 14.3352 75.1264 14.3352C72.7716 14.3352 70.9354 15.0126 69.6204 16.3687C68.3054 17.7235 67.6486 19.7291 67.6486 22.3855V26.9442H82.6056H82.6042Z" fill="#283B31"/>
<path d="M114.244 38.8129L108.368 30.3939C108.122 30.4218 107.751 30.4344 107.258 30.4344H100.766V38.8129H95.4231V10.0643H107.258C109.751 10.0643 111.921 10.4749 113.772 11.2961C115.621 12.1173 117.039 13.2947 118.024 14.8282C119.011 16.3618 119.504 18.1816 119.504 20.2905C119.504 22.3995 118.976 24.3157 117.922 25.8757C116.867 27.4358 115.354 28.6006 113.382 29.3673L119.997 38.8129H114.244ZM112.313 16.0615C111.107 15.0754 109.34 14.5824 107.012 14.5824H100.766V26.0405H107.012C109.34 26.0405 111.107 25.5419 112.313 24.5419C113.517 23.5433 114.121 22.1257 114.121 20.2905C114.121 18.4553 113.519 17.0461 112.313 16.0601V16.0615Z" fill="#283B31"/>
<path d="M144.735 11.1732C146.653 12.1872 148.139 13.6858 149.193 15.6704C150.247 17.6564 150.775 20.0587 150.775 22.8785V38.8129H145.433V31.4204H130.476V38.8129H125.216V22.8785C125.216 20.0587 125.742 17.6564 126.797 15.6704C127.851 13.6858 129.338 12.1872 131.255 11.1732C133.173 10.1606 135.42 9.65365 137.995 9.65365C140.571 9.65365 142.816 10.1606 144.734 11.1732H144.735ZM145.434 26.9442V22.3855C145.434 19.7305 144.777 17.7249 143.462 16.3687C142.147 15.014 140.311 14.3352 137.956 14.3352C135.601 14.3352 133.765 15.0126 132.45 16.3687C131.135 17.7235 130.478 19.7291 130.478 22.3855V26.9442H145.435H145.434Z" fill="#283B31"/>
<path d="M26.2237 22.8771V38.8129H20.8812V22.3855C20.8812 19.7305 20.2258 17.7221 18.908 16.3701C17.5943 15.014 15.7581 14.338 13.4034 14.338C11.0487 14.338 9.21239 15.014 7.89878 16.3701C6.58097 17.7221 5.92556 19.7305 5.92556 22.3855V38.8129H0.665527V22.8771C0.665527 20.0587 1.19377 17.655 2.24885 15.669C3.30114 13.6858 4.78943 12.1886 6.70535 11.1732C8.62545 10.1606 10.8712 9.65504 13.4467 9.65504C16.0222 9.65504 18.2679 10.162 20.1838 11.1732C22.0998 12.19 23.5881 13.6872 24.6431 15.669C25.6954 17.655 26.2237 20.0587 26.2237 22.8771Z" fill="#283B31"/>
<path d="M5.36798 27.3631C5.36798 27.3631 8.6031 25.102 11.9612 26.3911C15.3179 27.6802 17.2645 28.3366 21.5212 26.1243V30.6229C21.5212 30.6229 18.4077 32.8115 14.6611 31.912C10.9145 31.0126 9.60088 29.4805 5.36798 32.3743V27.3631Z" fill="#283B31"/>
<path d="M18.5293 0.825439H8.35855C7.89547 0.825439 7.52007 1.20062 7.52007 1.66343V5.65086C7.52007 6.11367 7.89547 6.48885 8.35855 6.48885H18.5293C18.9923 6.48885 19.3677 6.11367 19.3677 5.65086V1.66343C19.3677 1.20062 18.9923 0.825439 18.5293 0.825439Z" fill="#00AF39"/>
<path d="M34.0229 48.2346V43.6355L37.1658 46.9204V43.9274H37.8156V48.4958L34.6727 45.2193V48.2346H34.0229Z" fill="#283B31"/>
<path d="M39.8154 46.0615C39.8154 45.4553 40.0376 44.9344 40.482 44.5C40.925 44.0643 41.4574 43.8478 42.0779 43.8478C42.6983 43.8478 43.2182 44.0671 43.657 44.5056C44.0986 44.9441 44.318 45.4721 44.318 46.0866C44.318 46.7011 44.0972 47.2305 43.6542 47.662C43.2098 48.095 42.6732 48.3115 42.0443 48.3115C41.4881 48.3115 40.9892 48.1187 40.5462 47.7346C40.0585 47.3087 39.8154 46.7514 39.8154 46.0615ZM40.4708 46.0698C40.4708 46.5461 40.6301 46.9372 40.9501 47.2444C41.2687 47.5517 41.6363 47.7039 42.0527 47.7039C42.5055 47.7039 42.8856 47.5475 43.1972 47.236C43.5075 46.9204 43.6626 46.5349 43.6626 46.081C43.6626 45.6271 43.5089 45.2374 43.2028 44.926C42.8982 44.6131 42.5195 44.4581 42.0695 44.4581C41.6195 44.4581 41.2422 44.6145 40.9333 44.926C40.6245 45.2347 40.4708 45.6159 40.4708 46.0698Z" fill="#283B31"/>
<path d="M49.8366 46.486V48.2346H49.1867V43.9288H49.9232C50.2837 43.9288 50.5562 43.9539 50.7407 44.0042C50.9266 44.0545 51.0901 44.1495 51.2312 44.2891C51.4786 44.5307 51.6029 44.8352 51.6029 45.2039C51.6029 45.5978 51.4716 45.9106 51.2061 46.1411C50.9419 46.3715 50.5856 46.4874 50.137 46.4874H49.8352L49.8366 46.486ZM49.8366 45.8841H50.0797C50.6764 45.8841 50.9755 45.655 50.9755 45.1955C50.9755 44.736 50.668 44.5293 50.0518 44.5293H49.8366V45.8855V45.8841Z" fill="#283B31"/>
<path d="M54.0667 43.9274V47.6229H55.3342V48.2333H53.4168V43.9274H54.0667Z" fill="#283B31"/>
<path d="M61.0274 48.2333H60.3161L59.8647 47.1886L58.962 45.1117L58.0215 47.1886L57.5407 48.2333H56.8378L58.9731 43.6578L61.0274 48.2333Z" fill="#283B31"/>
<path d="M65.1457 44.5698L64.6189 44.8827C64.5211 44.7123 64.426 44.6006 64.3366 44.5475C64.2444 44.4874 64.1242 44.4581 63.9761 44.4581C63.7958 44.4581 63.6462 44.5098 63.5261 44.6117C63.4073 44.7123 63.3472 44.838 63.3472 44.9916C63.3472 45.2011 63.5037 45.3715 63.8153 45.4986L64.2458 45.6746C64.5951 45.8157 64.8509 45.9888 65.013 46.1914C65.1751 46.3939 65.2561 46.6453 65.2561 46.94C65.2561 47.3366 65.1248 47.6634 64.8592 47.9218C64.5937 48.1816 64.2625 48.3129 63.8684 48.3129C63.4939 48.3129 63.1851 48.2025 62.9419 47.9805C62.7016 47.7598 62.552 47.4483 62.492 47.0461L63.1501 46.9009C63.1795 47.1536 63.2326 47.3282 63.3067 47.4246C63.4408 47.6103 63.6365 47.7039 63.8922 47.7039C64.0948 47.7039 64.2639 47.6355 64.3967 47.5C64.5294 47.3645 64.5979 47.1928 64.5979 46.9847C64.5979 46.9009 64.5867 46.824 64.563 46.7542C64.5392 46.6844 64.5029 46.6201 64.454 46.5615C64.4051 46.5028 64.3408 46.4483 64.2625 46.3967C64.1843 46.345 64.092 46.2975 63.983 46.25L63.5666 46.0768C62.9769 45.8282 62.682 45.4637 62.682 44.9833C62.682 44.6592 62.805 44.3897 63.0537 44.1718C63.3011 43.9525 63.6085 43.8422 63.9774 43.8422C64.4735 43.8422 64.862 44.0838 65.1415 44.5671L65.1457 44.5698Z" fill="#283B31"/>
<path d="M68.4549 44.5391V48.2346H67.8051V44.5391H66.8143V43.9288H69.4429V44.5391H68.4549Z" fill="#283B31"/>
<path d="M71.8172 43.9274V48.2333H71.1674V43.9274H71.8172Z" fill="#283B31"/>
<path d="M77.1792 44.1592V44.9288C76.8033 44.6145 76.4148 44.4581 76.0124 44.4581C75.5694 44.4581 75.1963 44.6173 74.893 44.9344C74.5884 45.25 74.4346 45.6369 74.4346 46.095C74.4346 46.5531 74.587 46.9274 74.893 47.2388C75.1976 47.5489 75.5722 47.7039 76.0152 47.7039C76.2443 47.7039 76.4386 47.6662 76.5979 47.5922C76.6873 47.5545 76.7796 47.5042 76.876 47.4414C76.9724 47.3785 77.073 47.3017 77.1792 47.2123V47.9958C76.8075 48.2053 76.4162 48.3115 76.0068 48.3115C75.3905 48.3115 74.8651 48.0964 74.4304 47.6676C73.9972 47.2346 73.7806 46.7123 73.7806 46.1006C73.7806 45.5517 73.9623 45.0629 74.3242 44.6341C74.7714 44.1076 75.3486 43.845 76.0571 43.845C76.4442 43.845 76.8187 43.9497 77.1792 44.1606V44.1592Z" fill="#283B31"/>
<path d="M79.411 47.4288L79.9686 47.6467L79.1734 49.2388L78.7486 49.0629L79.4096 47.4288H79.411Z" fill="#283B31"/>
<path d="M84.9561 48.2346V43.6355L88.099 46.9204V43.9274H88.7488V48.4958L85.6059 45.2193V48.2346H84.9561Z" fill="#283B31"/>
<path d="M90.7486 46.0615C90.7486 45.4553 90.9708 44.9344 91.4152 44.5C91.8582 44.0643 92.3906 43.8478 93.0111 43.8478C93.6315 43.8478 94.1514 44.0671 94.5902 44.5056C95.0318 44.9441 95.2512 45.4721 95.2512 46.0866C95.2512 46.7011 95.0304 47.2305 94.5874 47.662C94.143 48.095 93.6064 48.3115 92.9775 48.3115C92.4213 48.3115 91.9224 48.1187 91.4794 47.7346C90.9917 47.3087 90.7486 46.7514 90.7486 46.0615ZM91.404 46.0698C91.404 46.5461 91.5633 46.9372 91.8833 47.2444C92.2019 47.5517 92.5695 47.7039 92.9859 47.7039C93.4387 47.7039 93.8188 47.5475 94.1304 47.236C94.4407 46.9204 94.5958 46.5349 94.5958 46.081C94.5958 45.6271 94.4421 45.2374 94.136 44.926C93.8314 44.6131 93.4527 44.4581 93.0027 44.4581C92.5527 44.4581 92.1754 44.6145 91.8665 44.926C91.5577 45.2347 91.404 45.6159 91.404 46.0698Z" fill="#283B31"/>
<path d="M100.77 45.6131H102.628V43.9288H103.278V48.2346H102.628V46.2235H100.77V48.2346H100.12V43.9288H100.77V45.6131Z" fill="#283B31"/>
<path d="M109.15 48.2333H108.439L107.082 45.1117L106.142 47.1886L105.661 48.2333H104.961L107.093 43.6578L109.15 48.2333Z" fill="#283B31"/>
<path d="M112.29 46.3995L113.625 48.2346H112.83L111.599 46.4721H111.481V48.2346H110.831V43.9288H111.593C112.162 43.9288 112.574 44.0349 112.827 44.25C113.107 44.4874 113.246 44.8017 113.246 45.1927C113.246 45.4972 113.158 45.7598 112.984 45.9791C112.809 46.1983 112.578 46.3394 112.292 46.4009L112.29 46.3995ZM111.481 45.9064H111.688C112.304 45.9064 112.612 45.6718 112.612 45.2011C112.612 44.7598 112.313 44.5405 111.713 44.5405H111.481V45.9078V45.9064Z" fill="#283B31"/>
<path d="M115.264 48.2346L116.171 43.6048L117.65 46.9511L119.181 43.6048L119.996 48.2346H119.329L118.913 45.6355L117.637 48.433L116.398 45.6327L115.935 48.2346H115.263H115.264Z" fill="#283B31"/>
</svg>
